<svg width="84" height="18" viewBox="0 0 84 18" fill="none" xmlns="http://www.w3.org/2000/svg">
<path d="M0.62 17H5.82C9.1 17 11.78 15.84 13.36 13.44C14.16 12.22 14.56 10.78 14.56 9.12C14.56 6.62 13.74 4.7 12.1 3.36C10.46 2.02 8.36 1.34 5.8 1.34H0.62V17ZM4.56 4.96H5.84C7.18 4.96 8.3 5.32 9.18 6.06C10.08 6.8 10.52 7.82 10.52 9.14C10.52 10.48 10.08 11.5 9.2 12.24C8.32 12.98 7.2 13.34 5.82 13.34H4.56V4.96ZM21.0077 8.98C21.9077 8.98 22.4277 9.46 22.4277 10.04C22.4277 10.48 22.1677 10.7 21.6677 10.7H21.1077C18.8277 10.7 16.0477 11.48 16.0477 14.06C16.0477 14.96 16.3677 15.7 16.9877 16.3C17.6277 16.9 18.3877 17.2 19.2877 17.2C20.6077 17.2 21.6877 16.72 22.5277 15.74L22.5677 15.76V17H26.1877V10.48C26.1877 7.6 24.3077 6.08 21.2877 6.08C18.8277 6.08 17.1277 6.94 16.1677 8.64L18.7077 10.2C19.2677 9.38 20.0277 8.98 21.0077 8.98ZM20.8077 14.56C20.3077 14.56 19.8477 14.16 19.8477 13.66C19.8477 13.04 20.4477 12.74 21.1077 12.74H22.4277V13.06C22.4277 14 21.7677 14.56 20.8077 14.56ZM27.9803 11.66C27.9803 13.26 28.5403 14.6 29.6803 15.66C30.8203 16.72 32.2203 17.24 33.8403 17.24C35.4603 17.24 36.8603 16.7 38.0203 15.62C39.1803 14.54 39.7603 13.2 39.7603 11.58C39.7603 10 39.1803 8.68 38.0403 7.64C36.9003 6.6 35.5203 6.08 33.9203 6.08C32.3203 6.08 30.9203 6.62 29.7403 7.68C28.5603 8.74 27.9803 10.08 27.9803 11.66ZM33.8803 13.82C32.7003 13.82 31.8003 12.82 31.8003 11.64C31.8003 10.46 32.7003 9.48 33.8803 9.48C35.0603 9.48 35.9403 10.46 35.9403 11.64C35.9403 12.22 35.7403 12.74 35.3403 13.18C34.9403 13.6 34.4603 13.82 33.8803 13.82Z" fill="url(#paint0_linear_0:821)"/>
<path d="M48.7858 12.58C48.4058 13.38 47.8058 13.78 46.9658 13.78C45.7458 13.78 44.9458 12.84 44.9458 11.62C44.9458 10.44 45.7858 9.5 46.9658 9.5C47.7658 9.5 48.4858 9.98 48.7458 10.72L52.0258 9.34C51.3058 7.26 49.4058 6.08 46.9858 6.08C45.3858 6.08 44.0058 6.62 42.8258 7.68C41.6658 8.74 41.0858 10.08 41.0858 11.66C41.0858 13.28 41.6458 14.62 42.7658 15.68C43.9058 16.72 45.2858 17.24 46.9458 17.24C49.3658 17.24 51.2858 16.04 52.0858 13.96L48.7858 12.58ZM53.2733 11.66C53.2733 13.26 53.8333 14.6 54.9733 15.66C56.1133 16.72 57.5133 17.24 59.1333 17.24C60.7533 17.24 62.1533 16.7 63.3133 15.62C64.4733 14.54 65.0533 13.2 65.0533 11.58C65.0533 10 64.4733 8.68 63.3333 7.64C62.1933 6.6 60.8133 6.08 59.2133 6.08C57.6133 6.08 56.2133 6.62 55.0333 7.68C53.8533 8.74 53.2733 10.08 53.2733 11.66ZM59.1733 13.82C57.9933 13.82 57.0933 12.82 57.0933 11.64C57.0933 10.46 57.9933 9.48 59.1733 9.48C60.3533 9.48 61.2333 10.46 61.2333 11.64C61.2333 12.22 61.0333 12.74 60.6333 13.18C60.2333 13.6 59.7533 13.82 59.1733 13.82ZM68.8788 4.9C69.4988 4.9 70.0188 4.68 70.4388 4.26C70.8788 3.82 71.0988 3.3 71.0988 2.7C71.0988 2.08 70.8788 1.56 70.4588 1.14C70.0388 0.699999 69.4988 0.479999 68.8788 0.479999C67.6588 0.479999 66.6588 1.48 66.6588 2.7C66.6588 3.3 66.8788 3.82 67.3188 4.26C67.7588 4.68 68.2788 4.9 68.8788 4.9ZM66.9588 6.32V17H70.7988V6.32H66.9588ZM83.9069 17V10.54C83.9069 8.46 82.9869 6.1 80.1669 6.1C79.0669 6.1 77.8869 6.62 77.1069 7.66H77.0669V6.32H73.2869V17H77.0869V11.22C77.0869 10.18 77.7069 9.58 78.6469 9.58C79.5269 9.58 80.1069 10.32 80.1069 11.22V17H83.9069Z" fill="white"/>
<defs>
<linearGradient id="paint0_linear_0:821" x1="1.86527" y1="26" x2="86" y2="26" gradientUnits="userSpaceOnUse">
<stop stop-color="#21E900"/>
<stop offset="1" stop-color="#16D366"/>
</linearGradient>
</defs>
</svg>
